<mxfile host="app.diagrams.net" agent="Mozilla/5.0 (Windows NT 10.0; Win64; x64) AppleWebKit/537.36 (KHTML, like Gecko) Chrome/127.0.0.0 Safari/537.36" version="24.7.6">
  <diagram name="第 1 页" id="rtMotEhuk78CixwwPYpt">
    <mxGraphModel dx="2261" dy="772" grid="1" gridSize="10" guides="1" tooltips="1" connect="1" arrows="1" fold="1" page="1" pageScale="1" pageWidth="827" pageHeight="1169" math="0" shadow="0">
      <root>
        <mxCell id="0" />
        <mxCell id="1" parent="0" />
        <mxCell id="nT96e9O3tZ2XYBUej3jo-3" value="&lt;div&gt;愤怒&lt;/div&gt;" style="rounded=0;whiteSpace=wrap;html=1;" vertex="1" parent="1">
          <mxGeometry x="130" y="350" width="40" height="20" as="geometry" />
        </mxCell>
        <mxCell id="nT96e9O3tZ2XYBUej3jo-4" value="&lt;div&gt;平和&lt;/div&gt;" style="rounded=0;whiteSpace=wrap;html=1;" vertex="1" parent="1">
          <mxGeometry x="130" y="390" width="40" height="20" as="geometry" />
        </mxCell>
        <mxCell id="nT96e9O3tZ2XYBUej3jo-5" value="&lt;div&gt;负面&lt;/div&gt;" style="rounded=0;whiteSpace=wrap;html=1;" vertex="1" parent="1">
          <mxGeometry x="200" y="350" width="40" height="20" as="geometry" />
        </mxCell>
        <mxCell id="nT96e9O3tZ2XYBUej3jo-6" value="&lt;div&gt;平和&lt;/div&gt;" style="rounded=0;whiteSpace=wrap;html=1;" vertex="1" parent="1">
          <mxGeometry x="200" y="390" width="40" height="20" as="geometry" />
        </mxCell>
        <mxCell id="nT96e9O3tZ2XYBUej3jo-9" style="edgeStyle=orthogonalEdgeStyle;rounded=0;orthogonalLoop=1;jettySize=auto;html=1;entryX=1;entryY=0.5;entryDx=0;entryDy=0;" edge="1" parent="1" source="nT96e9O3tZ2XYBUej3jo-7" target="nT96e9O3tZ2XYBUej3jo-5">
          <mxGeometry relative="1" as="geometry" />
        </mxCell>
        <mxCell id="nT96e9O3tZ2XYBUej3jo-7" value="&lt;div&gt;呼吸&lt;/div&gt;" style="rounded=0;whiteSpace=wrap;html=1;" vertex="1" parent="1">
          <mxGeometry x="270" y="350" width="40" height="20" as="geometry" />
        </mxCell>
        <mxCell id="nT96e9O3tZ2XYBUej3jo-10" style="edgeStyle=orthogonalEdgeStyle;rounded=0;orthogonalLoop=1;jettySize=auto;html=1;entryX=1;entryY=0.5;entryDx=0;entryDy=0;" edge="1" parent="1" source="nT96e9O3tZ2XYBUej3jo-8" target="nT96e9O3tZ2XYBUej3jo-6">
          <mxGeometry relative="1" as="geometry" />
        </mxCell>
        <mxCell id="nT96e9O3tZ2XYBUej3jo-8" value="&lt;div&gt;感受&lt;/div&gt;" style="rounded=0;whiteSpace=wrap;html=1;" vertex="1" parent="1">
          <mxGeometry x="270" y="390" width="40" height="20" as="geometry" />
        </mxCell>
        <mxCell id="nT96e9O3tZ2XYBUej3jo-11" value="" style="endArrow=classic;html=1;rounded=0;exitX=0;exitY=0.5;exitDx=0;exitDy=0;" edge="1" parent="1" source="nT96e9O3tZ2XYBUej3jo-8">
          <mxGeometry width="50" height="50" relative="1" as="geometry">
            <mxPoint x="80" y="510" as="sourcePoint" />
            <mxPoint x="240" y="360" as="targetPoint" />
          </mxGeometry>
        </mxCell>
        <mxCell id="nT96e9O3tZ2XYBUej3jo-12" value="" style="endArrow=classic;html=1;rounded=0;exitX=0;exitY=0.5;exitDx=0;exitDy=0;" edge="1" parent="1" source="nT96e9O3tZ2XYBUej3jo-7">
          <mxGeometry width="50" height="50" relative="1" as="geometry">
            <mxPoint x="280" y="410" as="sourcePoint" />
            <mxPoint x="240" y="400" as="targetPoint" />
          </mxGeometry>
        </mxCell>
        <mxCell id="nT96e9O3tZ2XYBUej3jo-13" value="" style="endArrow=classic;html=1;rounded=0;exitX=0;exitY=0.5;exitDx=0;exitDy=0;" edge="1" parent="1" source="nT96e9O3tZ2XYBUej3jo-5">
          <mxGeometry width="50" height="50" relative="1" as="geometry">
            <mxPoint x="280" y="370" as="sourcePoint" />
            <mxPoint x="170" y="360" as="targetPoint" />
          </mxGeometry>
        </mxCell>
        <mxCell id="nT96e9O3tZ2XYBUej3jo-14" value="" style="endArrow=classic;html=1;rounded=0;exitX=0;exitY=0.5;exitDx=0;exitDy=0;entryX=1;entryY=0.5;entryDx=0;entryDy=0;" edge="1" parent="1" source="nT96e9O3tZ2XYBUej3jo-6" target="nT96e9O3tZ2XYBUej3jo-4">
          <mxGeometry width="50" height="50" relative="1" as="geometry">
            <mxPoint x="210" y="370" as="sourcePoint" />
            <mxPoint x="180" y="370" as="targetPoint" />
          </mxGeometry>
        </mxCell>
        <mxCell id="nT96e9O3tZ2XYBUej3jo-15" value="L0" style="text;html=1;align=center;verticalAlign=middle;whiteSpace=wrap;rounded=0;" vertex="1" parent="1">
          <mxGeometry x="272.5" y="340" width="35" height="10" as="geometry" />
        </mxCell>
        <mxCell id="nT96e9O3tZ2XYBUej3jo-16" value="L1" style="text;html=1;align=center;verticalAlign=middle;whiteSpace=wrap;rounded=0;" vertex="1" parent="1">
          <mxGeometry x="202.5" y="340" width="35" height="10" as="geometry" />
        </mxCell>
        <mxCell id="nT96e9O3tZ2XYBUej3jo-17" value="L2" style="text;html=1;align=center;verticalAlign=middle;whiteSpace=wrap;rounded=0;" vertex="1" parent="1">
          <mxGeometry x="132.5" y="340" width="35" height="10" as="geometry" />
        </mxCell>
        <mxCell id="nT96e9O3tZ2XYBUej3jo-19" value="&lt;div&gt;观察&lt;/div&gt;" style="rounded=0;whiteSpace=wrap;html=1;" vertex="1" parent="1">
          <mxGeometry x="350" y="370" width="40" height="20" as="geometry" />
        </mxCell>
        <mxCell id="nT96e9O3tZ2XYBUej3jo-21" value="" style="endArrow=classic;html=1;rounded=0;exitX=1;exitY=0.5;exitDx=0;exitDy=0;entryX=0;entryY=0.5;entryDx=0;entryDy=0;" edge="1" parent="1" source="nT96e9O3tZ2XYBUej3jo-7" target="nT96e9O3tZ2XYBUej3jo-19">
          <mxGeometry width="50" height="50" relative="1" as="geometry">
            <mxPoint x="350" y="410" as="sourcePoint" />
            <mxPoint x="320" y="450" as="targetPoint" />
          </mxGeometry>
        </mxCell>
        <mxCell id="nT96e9O3tZ2XYBUej3jo-22" value="" style="endArrow=classic;html=1;rounded=0;exitX=1;exitY=0.5;exitDx=0;exitDy=0;entryX=0;entryY=0.5;entryDx=0;entryDy=0;" edge="1" parent="1" source="nT96e9O3tZ2XYBUej3jo-8" target="nT96e9O3tZ2XYBUej3jo-19">
          <mxGeometry width="50" height="50" relative="1" as="geometry">
            <mxPoint x="320" y="370" as="sourcePoint" />
            <mxPoint x="360" y="390" as="targetPoint" />
          </mxGeometry>
        </mxCell>
        <mxCell id="nT96e9O3tZ2XYBUej3jo-23" value="安详" style="rounded=0;whiteSpace=wrap;html=1;" vertex="1" parent="1">
          <mxGeometry x="420" y="331" width="40" height="20" as="geometry" />
        </mxCell>
        <mxCell id="nT96e9O3tZ2XYBUej3jo-24" value="&lt;div&gt;和谐&lt;/div&gt;" style="rounded=0;whiteSpace=wrap;html=1;" vertex="1" parent="1">
          <mxGeometry x="420" y="371" width="40" height="20" as="geometry" />
        </mxCell>
        <mxCell id="nT96e9O3tZ2XYBUej3jo-25" value="小乘" style="text;html=1;align=center;verticalAlign=middle;whiteSpace=wrap;rounded=0;" vertex="1" parent="1">
          <mxGeometry x="422.5" y="321" width="35" height="10" as="geometry" />
        </mxCell>
        <mxCell id="nT96e9O3tZ2XYBUej3jo-26" value="&lt;div&gt;平等心&lt;/div&gt;" style="rounded=0;whiteSpace=wrap;html=1;" vertex="1" parent="1">
          <mxGeometry x="420" y="411" width="40" height="20" as="geometry" />
        </mxCell>
        <mxCell id="nT96e9O3tZ2XYBUej3jo-28" value="&lt;div&gt;帮助他人&lt;/div&gt;" style="rounded=0;whiteSpace=wrap;html=1;" vertex="1" parent="1">
          <mxGeometry x="504" y="371" width="56" height="20" as="geometry" />
        </mxCell>
        <mxCell id="nT96e9O3tZ2XYBUej3jo-29" value="大乘" style="text;html=1;align=center;verticalAlign=middle;whiteSpace=wrap;rounded=0;" vertex="1" parent="1">
          <mxGeometry x="514.5" y="361" width="35" height="10" as="geometry" />
        </mxCell>
        <mxCell id="nT96e9O3tZ2XYBUej3jo-30" value="" style="endArrow=classic;html=1;rounded=0;exitX=1;exitY=0.5;exitDx=0;exitDy=0;entryX=0;entryY=0.5;entryDx=0;entryDy=0;" edge="1" parent="1" source="nT96e9O3tZ2XYBUej3jo-19" target="nT96e9O3tZ2XYBUej3jo-23">
          <mxGeometry width="50" height="50" relative="1" as="geometry">
            <mxPoint x="320" y="370" as="sourcePoint" />
            <mxPoint x="360" y="390" as="targetPoint" />
          </mxGeometry>
        </mxCell>
        <mxCell id="nT96e9O3tZ2XYBUej3jo-31" value="" style="endArrow=classic;html=1;rounded=0;exitX=1;exitY=0.5;exitDx=0;exitDy=0;entryX=0;entryY=0.5;entryDx=0;entryDy=0;" edge="1" parent="1" source="nT96e9O3tZ2XYBUej3jo-19" target="nT96e9O3tZ2XYBUej3jo-24">
          <mxGeometry width="50" height="50" relative="1" as="geometry">
            <mxPoint x="400" y="390" as="sourcePoint" />
            <mxPoint x="430" y="370" as="targetPoint" />
          </mxGeometry>
        </mxCell>
        <mxCell id="nT96e9O3tZ2XYBUej3jo-32" value="" style="endArrow=classic;html=1;rounded=0;exitX=1;exitY=0.5;exitDx=0;exitDy=0;entryX=0;entryY=0.5;entryDx=0;entryDy=0;" edge="1" parent="1" source="nT96e9O3tZ2XYBUej3jo-19" target="nT96e9O3tZ2XYBUej3jo-26">
          <mxGeometry width="50" height="50" relative="1" as="geometry">
            <mxPoint x="400" y="390" as="sourcePoint" />
            <mxPoint x="430" y="410" as="targetPoint" />
          </mxGeometry>
        </mxCell>
        <mxCell id="nT96e9O3tZ2XYBUej3jo-33" value="" style="endArrow=classic;html=1;rounded=0;exitX=1;exitY=0.5;exitDx=0;exitDy=0;entryX=0;entryY=0.5;entryDx=0;entryDy=0;" edge="1" parent="1" source="nT96e9O3tZ2XYBUej3jo-26" target="nT96e9O3tZ2XYBUej3jo-28">
          <mxGeometry width="50" height="50" relative="1" as="geometry">
            <mxPoint x="400" y="371" as="sourcePoint" />
            <mxPoint x="430" y="431" as="targetPoint" />
          </mxGeometry>
        </mxCell>
        <mxCell id="nT96e9O3tZ2XYBUej3jo-34" value="" style="endArrow=classic;html=1;rounded=0;exitX=1;exitY=0.5;exitDx=0;exitDy=0;entryX=0;entryY=0.5;entryDx=0;entryDy=0;" edge="1" parent="1" source="nT96e9O3tZ2XYBUej3jo-24" target="nT96e9O3tZ2XYBUej3jo-28">
          <mxGeometry width="50" height="50" relative="1" as="geometry">
            <mxPoint x="470" y="431" as="sourcePoint" />
            <mxPoint x="514" y="391" as="targetPoint" />
          </mxGeometry>
        </mxCell>
        <mxCell id="nT96e9O3tZ2XYBUej3jo-35" value="" style="endArrow=classic;html=1;rounded=0;exitX=1;exitY=0.5;exitDx=0;exitDy=0;entryX=0;entryY=0.5;entryDx=0;entryDy=0;" edge="1" parent="1" source="nT96e9O3tZ2XYBUej3jo-23" target="nT96e9O3tZ2XYBUej3jo-28">
          <mxGeometry width="50" height="50" relative="1" as="geometry">
            <mxPoint x="470" y="391" as="sourcePoint" />
            <mxPoint x="514" y="391" as="targetPoint" />
          </mxGeometry>
        </mxCell>
        <mxCell id="nT96e9O3tZ2XYBUej3jo-36" value="安详、和谐、&lt;span style=&quot;background-color: initial;&quot;&gt;豁达、不再执著、积极的、有创造力的、快乐&lt;/span&gt;&lt;div&gt;平等心、仁爱、慈悲、世界和平&lt;span style=&quot;background-color: initial;&quot;&gt;&lt;br&gt;&lt;/span&gt;&lt;/div&gt;" style="rounded=1;whiteSpace=wrap;html=1;verticalAlign=top;" vertex="1" parent="1">
          <mxGeometry x="460" y="150" width="170" height="90" as="geometry" />
        </mxCell>
        <mxCell id="nT96e9O3tZ2XYBUej3jo-37" value="过好这一生" style="rounded=1;whiteSpace=wrap;html=1;" vertex="1" parent="1">
          <mxGeometry x="514.5" y="210" width="80" height="20" as="geometry" />
        </mxCell>
        <mxCell id="nT96e9O3tZ2XYBUej3jo-38" value="L1：戒：遵守戒律&lt;div&gt;守住底线，不作恶：&lt;/div&gt;&lt;div&gt;不杀生、不偷盗、不发生不正当的性行为、不说谎、不服用麻醉品&lt;/div&gt;&lt;div&gt;&lt;br&gt;&lt;div&gt;&lt;br&gt;&lt;/div&gt;&lt;/div&gt;" style="rounded=1;whiteSpace=wrap;html=1;verticalAlign=top;align=left;" vertex="1" parent="1">
          <mxGeometry x="-360" y="130" width="170" height="90" as="geometry" />
        </mxCell>
        <mxCell id="nT96e9O3tZ2XYBUej3jo-39" value="L2：定：专注于内&lt;div&gt;&lt;div&gt;&lt;br&gt;&lt;/div&gt;&lt;/div&gt;" style="rounded=1;whiteSpace=wrap;html=1;verticalAlign=top;align=left;" vertex="1" parent="1">
          <mxGeometry x="-140" y="130" width="170" height="90" as="geometry" />
        </mxCell>
        <mxCell id="nT96e9O3tZ2XYBUej3jo-40" value="L3：慧：照见本身实相，自我净化&lt;span style=&quot;white-space: pre;&quot;&gt;&#x9;&lt;/span&gt;&lt;div&gt;从粗重、外在和浅显的表象，贯穿渗透到身心的终极究竟实相。&lt;/div&gt;&lt;div&gt;再进一步，超越身心的实相，超越时空及相互依存的限制领域的实相，从所有不净、杂染、痛苦中彻底解脱的实相&lt;br&gt;&lt;div&gt;&lt;br&gt;&lt;div&gt;&lt;div&gt;&lt;br&gt;&lt;/div&gt;&lt;/div&gt;&lt;/div&gt;&lt;/div&gt;" style="rounded=1;whiteSpace=wrap;html=1;verticalAlign=top;align=left;" vertex="1" parent="1">
          <mxGeometry x="80" y="130" width="311" height="90" as="geometry" />
        </mxCell>
        <mxCell id="nT96e9O3tZ2XYBUej3jo-50" value="佛" style="rounded=0;whiteSpace=wrap;html=1;" vertex="1" parent="1">
          <mxGeometry x="422.5" y="480" width="40" height="20" as="geometry" />
        </mxCell>
        <mxCell id="nT96e9O3tZ2XYBUej3jo-51" value="&lt;div&gt;基督&lt;/div&gt;" style="rounded=0;whiteSpace=wrap;html=1;" vertex="1" parent="1">
          <mxGeometry x="422.5" y="520" width="40" height="20" as="geometry" />
        </mxCell>
        <mxCell id="nT96e9O3tZ2XYBUej3jo-52" value="表" style="text;html=1;align=center;verticalAlign=middle;whiteSpace=wrap;rounded=0;" vertex="1" parent="1">
          <mxGeometry x="425" y="470" width="35" height="10" as="geometry" />
        </mxCell>
        <mxCell id="nT96e9O3tZ2XYBUej3jo-53" value="&lt;div&gt;伊斯兰&lt;/div&gt;" style="rounded=0;whiteSpace=wrap;html=1;" vertex="1" parent="1">
          <mxGeometry x="422.5" y="560" width="40" height="20" as="geometry" />
        </mxCell>
        <mxCell id="nT96e9O3tZ2XYBUej3jo-54" value="善" style="rounded=0;whiteSpace=wrap;html=1;" vertex="1" parent="1">
          <mxGeometry x="506.5" y="520" width="56" height="20" as="geometry" />
        </mxCell>
        <mxCell id="nT96e9O3tZ2XYBUej3jo-55" value="本质追求" style="text;html=1;align=center;verticalAlign=middle;whiteSpace=wrap;rounded=0;" vertex="1" parent="1">
          <mxGeometry x="506.5" y="510" width="57" height="10" as="geometry" />
        </mxCell>
        <mxCell id="nT96e9O3tZ2XYBUej3jo-56" value="" style="endArrow=classic;html=1;rounded=0;exitX=1;exitY=0.5;exitDx=0;exitDy=0;entryX=0;entryY=0.5;entryDx=0;entryDy=0;" edge="1" parent="1" source="nT96e9O3tZ2XYBUej3jo-53" target="nT96e9O3tZ2XYBUej3jo-54">
          <mxGeometry width="50" height="50" relative="1" as="geometry">
            <mxPoint x="402.5" y="520" as="sourcePoint" />
            <mxPoint x="432.5" y="580" as="targetPoint" />
          </mxGeometry>
        </mxCell>
        <mxCell id="nT96e9O3tZ2XYBUej3jo-57" value="" style="endArrow=classic;html=1;rounded=0;exitX=1;exitY=0.5;exitDx=0;exitDy=0;entryX=0;entryY=0.5;entryDx=0;entryDy=0;" edge="1" parent="1" source="nT96e9O3tZ2XYBUej3jo-51" target="nT96e9O3tZ2XYBUej3jo-54">
          <mxGeometry width="50" height="50" relative="1" as="geometry">
            <mxPoint x="472.5" y="580" as="sourcePoint" />
            <mxPoint x="516.5" y="540" as="targetPoint" />
          </mxGeometry>
        </mxCell>
        <mxCell id="nT96e9O3tZ2XYBUej3jo-58" value="" style="endArrow=classic;html=1;rounded=0;exitX=1;exitY=0.5;exitDx=0;exitDy=0;entryX=0;entryY=0.5;entryDx=0;entryDy=0;" edge="1" parent="1" source="nT96e9O3tZ2XYBUej3jo-50" target="nT96e9O3tZ2XYBUej3jo-54">
          <mxGeometry width="50" height="50" relative="1" as="geometry">
            <mxPoint x="472.5" y="540" as="sourcePoint" />
            <mxPoint x="516.5" y="540" as="targetPoint" />
          </mxGeometry>
        </mxCell>
        <mxCell id="nT96e9O3tZ2XYBUej3jo-59" value="&lt;div&gt;...&lt;/div&gt;" style="rounded=0;whiteSpace=wrap;html=1;" vertex="1" parent="1">
          <mxGeometry x="422.5" y="600" width="40" height="20" as="geometry" />
        </mxCell>
      </root>
    </mxGraphModel>
  </diagram>
</mxfile>
